<?xml version="1.0" encoding="UTF-8" standalone="no"?>
<!DOCTYPE svg PUBLIC "-//W3C//DTD SVG 1.1//EN"
 "http://www.w3.org/Graphics/SVG/1.1/DTD/svg11.dtd">
<!-- Generated by graphviz version 2.42.3 (20191010.1750)
 -->
<!-- Title: snakemake_dag Pages: 1 -->
<svg width="253pt" height="620pt"
 viewBox="0.00 0.00 253.00 620.00" xmlns="http://www.w3.org/2000/svg" xmlns:xlink="http://www.w3.org/1999/xlink">
<g id="graph0" class="graph" transform="scale(1 1) rotate(0) translate(4 616)">
<title>snakemake_dag</title>
<polygon fill="white" stroke="transparent" points="-4,4 -4,-616 249,-616 249,4 -4,4"/>
<!-- 0 -->
<g id="node1" class="node">
<title>0</title>
<path fill="none" stroke="#56d88a" stroke-width="2" d="M137.5,-36C137.5,-36 107.5,-36 107.5,-36 101.5,-36 95.5,-30 95.5,-24 95.5,-24 95.5,-12 95.5,-12 95.5,-6 101.5,0 107.5,0 107.5,0 137.5,0 137.5,0 143.5,0 149.5,-6 149.5,-12 149.5,-12 149.5,-24 149.5,-24 149.5,-30 143.5,-36 137.5,-36"/>
<text text-anchor="middle" x="122.5" y="-15.5" font-family="sans" font-size="10.00">all</text>
</g>
<!-- 1 -->
<g id="node2" class="node">
<title>1</title>
<path fill="none" stroke="#56d8c1" stroke-width="2" d="M138.5,-180C138.5,-180 106.5,-180 106.5,-180 100.5,-180 94.5,-174 94.5,-168 94.5,-168 94.5,-156 94.5,-156 94.5,-150 100.5,-144 106.5,-144 106.5,-144 138.5,-144 138.5,-144 144.5,-144 150.5,-150 150.5,-156 150.5,-156 150.5,-168 150.5,-168 150.5,-174 144.5,-180 138.5,-180"/>
<text text-anchor="middle" x="122.5" y="-159.5" font-family="sans" font-size="10.00">circlator</text>
</g>
<!-- 1&#45;&gt;0 -->
<g id="edge1" class="edge">
<title>1&#45;&gt;0</title>
<path fill="none" stroke="grey" stroke-width="2" d="M104.33,-143.68C95.62,-134.1 86.09,-121.43 81.5,-108 76.33,-92.86 76.33,-87.14 81.5,-72 84.94,-61.93 91.16,-52.28 97.73,-44.05"/>
<polygon fill="grey" stroke="grey" stroke-width="2" points="100.5,-46.2 104.33,-36.32 95.18,-41.65 100.5,-46.2"/>
</g>
<!-- 8 -->
<g id="node9" class="node">
<title>8</title>
<path fill="none" stroke="#56c1d8" stroke-width="2" d="M142.5,-108C142.5,-108 102.5,-108 102.5,-108 96.5,-108 90.5,-102 90.5,-96 90.5,-96 90.5,-84 90.5,-84 90.5,-78 96.5,-72 102.5,-72 102.5,-72 142.5,-72 142.5,-72 148.5,-72 154.5,-78 154.5,-84 154.5,-84 154.5,-96 154.5,-96 154.5,-102 148.5,-108 142.5,-108"/>
<text text-anchor="middle" x="122.5" y="-87.5" font-family="sans" font-size="10.00">amrfinder</text>
</g>
<!-- 1&#45;&gt;8 -->
<g id="edge10" class="edge">
<title>1&#45;&gt;8</title>
<path fill="none" stroke="grey" stroke-width="2" d="M122.5,-143.7C122.5,-135.98 122.5,-126.71 122.5,-118.11"/>
<polygon fill="grey" stroke="grey" stroke-width="2" points="126,-118.1 122.5,-108.1 119,-118.1 126,-118.1"/>
</g>
<!-- 9 -->
<g id="node10" class="node">
<title>9</title>
<path fill="none" stroke="#59d856" stroke-width="2" d="M214.5,-108C214.5,-108 184.5,-108 184.5,-108 178.5,-108 172.5,-102 172.5,-96 172.5,-96 172.5,-84 172.5,-84 172.5,-78 178.5,-72 184.5,-72 184.5,-72 214.5,-72 214.5,-72 220.5,-72 226.5,-78 226.5,-84 226.5,-84 226.5,-96 226.5,-96 226.5,-102 220.5,-108 214.5,-108"/>
<text text-anchor="middle" x="199.5" y="-87.5" font-family="sans" font-size="10.00">prokka</text>
</g>
<!-- 1&#45;&gt;9 -->
<g id="edge11" class="edge">
<title>1&#45;&gt;9</title>
<path fill="none" stroke="grey" stroke-width="2" d="M141.53,-143.7C151.04,-135.05 162.71,-124.45 173.07,-115.03"/>
<polygon fill="grey" stroke="grey" stroke-width="2" points="175.64,-117.42 180.69,-108.1 170.93,-112.24 175.64,-117.42"/>
</g>
<!-- 2 -->
<g id="node3" class="node">
<title>2</title>
<path fill="none" stroke="#88d856" stroke-width="2" d="M138.5,-252C138.5,-252 106.5,-252 106.5,-252 100.5,-252 94.5,-246 94.5,-240 94.5,-240 94.5,-228 94.5,-228 94.5,-222 100.5,-216 106.5,-216 106.5,-216 138.5,-216 138.5,-216 144.5,-216 150.5,-222 150.5,-228 150.5,-228 150.5,-240 150.5,-240 150.5,-246 144.5,-252 138.5,-252"/>
<text text-anchor="middle" x="122.5" y="-231.5" font-family="sans" font-size="10.00">medaka</text>
</g>
<!-- 2&#45;&gt;1 -->
<g id="edge4" class="edge">
<title>2&#45;&gt;1</title>
<path fill="none" stroke="grey" stroke-width="2" d="M122.5,-215.7C122.5,-207.98 122.5,-198.71 122.5,-190.11"/>
<polygon fill="grey" stroke="grey" stroke-width="2" points="126,-190.1 122.5,-180.1 119,-190.1 126,-190.1"/>
</g>
<!-- 3 -->
<g id="node4" class="node">
<title>3</title>
<path fill="none" stroke="#d88d56" stroke-width="2" d="M138.5,-324C138.5,-324 106.5,-324 106.5,-324 100.5,-324 94.5,-318 94.5,-312 94.5,-312 94.5,-300 94.5,-300 94.5,-294 100.5,-288 106.5,-288 106.5,-288 138.5,-288 138.5,-288 144.5,-288 150.5,-294 150.5,-300 150.5,-300 150.5,-312 150.5,-312 150.5,-318 144.5,-324 138.5,-324"/>
<text text-anchor="middle" x="122.5" y="-303.5" font-family="sans" font-size="10.00">raconX4</text>
</g>
<!-- 3&#45;&gt;2 -->
<g id="edge5" class="edge">
<title>3&#45;&gt;2</title>
<path fill="none" stroke="grey" stroke-width="2" d="M122.5,-287.7C122.5,-279.98 122.5,-270.71 122.5,-262.11"/>
<polygon fill="grey" stroke="grey" stroke-width="2" points="126,-262.1 122.5,-252.1 119,-262.1 126,-262.1"/>
</g>
<!-- 4 -->
<g id="node5" class="node">
<title>4</title>
<path fill="none" stroke="#568ad8" stroke-width="2" d="M138.5,-396C138.5,-396 106.5,-396 106.5,-396 100.5,-396 94.5,-390 94.5,-384 94.5,-384 94.5,-372 94.5,-372 94.5,-366 100.5,-360 106.5,-360 106.5,-360 138.5,-360 138.5,-360 144.5,-360 150.5,-366 150.5,-372 150.5,-372 150.5,-384 150.5,-384 150.5,-390 144.5,-396 138.5,-396"/>
<text text-anchor="middle" x="122.5" y="-375.5" font-family="sans" font-size="10.00">raconX3</text>
</g>
<!-- 4&#45;&gt;3 -->
<g id="edge6" class="edge">
<title>4&#45;&gt;3</title>
<path fill="none" stroke="grey" stroke-width="2" d="M122.5,-359.7C122.5,-351.98 122.5,-342.71 122.5,-334.11"/>
<polygon fill="grey" stroke="grey" stroke-width="2" points="126,-334.1 122.5,-324.1 119,-334.1 126,-334.1"/>
</g>
<!-- 5 -->
<g id="node6" class="node">
<title>5</title>
<path fill="none" stroke="#bed856" stroke-width="2" d="M138.5,-468C138.5,-468 106.5,-468 106.5,-468 100.5,-468 94.5,-462 94.5,-456 94.5,-456 94.5,-444 94.5,-444 94.5,-438 100.5,-432 106.5,-432 106.5,-432 138.5,-432 138.5,-432 144.5,-432 150.5,-438 150.5,-444 150.5,-444 150.5,-456 150.5,-456 150.5,-462 144.5,-468 138.5,-468"/>
<text text-anchor="middle" x="122.5" y="-447.5" font-family="sans" font-size="10.00">raconX2</text>
</g>
<!-- 5&#45;&gt;4 -->
<g id="edge7" class="edge">
<title>5&#45;&gt;4</title>
<path fill="none" stroke="grey" stroke-width="2" d="M122.5,-431.7C122.5,-423.98 122.5,-414.71 122.5,-406.11"/>
<polygon fill="grey" stroke="grey" stroke-width="2" points="126,-406.1 122.5,-396.1 119,-406.1 126,-406.1"/>
</g>
<!-- 6 -->
<g id="node7" class="node">
<title>6</title>
<path fill="none" stroke="#d85656" stroke-width="2" d="M138.5,-540C138.5,-540 106.5,-540 106.5,-540 100.5,-540 94.5,-534 94.5,-528 94.5,-528 94.5,-516 94.5,-516 94.5,-510 100.5,-504 106.5,-504 106.5,-504 138.5,-504 138.5,-504 144.5,-504 150.5,-510 150.5,-516 150.5,-516 150.5,-528 150.5,-528 150.5,-534 144.5,-540 138.5,-540"/>
<text text-anchor="middle" x="122.5" y="-519.5" font-family="sans" font-size="10.00">raconX1</text>
</g>
<!-- 6&#45;&gt;5 -->
<g id="edge8" class="edge">
<title>6&#45;&gt;5</title>
<path fill="none" stroke="grey" stroke-width="2" d="M122.5,-503.7C122.5,-495.98 122.5,-486.71 122.5,-478.11"/>
<polygon fill="grey" stroke="grey" stroke-width="2" points="126,-478.1 122.5,-468.1 119,-478.1 126,-478.1"/>
</g>
<!-- 7 -->
<g id="node8" class="node">
<title>7</title>
<path fill="none" stroke="#d8bc56" stroke-width="2" d="M233,-612C233,-612 12,-612 12,-612 6,-612 0,-606 0,-600 0,-600 0,-588 0,-588 0,-582 6,-576 12,-576 12,-576 233,-576 233,-576 239,-576 245,-582 245,-588 245,-588 245,-600 245,-600 245,-606 239,-612 233,-612"/>
<text text-anchor="middle" x="122.5" y="-597" font-family="sans" font-size="10.00">denovo</text>
<text text-anchor="middle" x="122.5" y="-586" font-family="sans" font-size="10.00">sample: FAO60983_pass_barcode02_b01ddb04</text>
</g>
<!-- 7&#45;&gt;6 -->
<g id="edge9" class="edge">
<title>7&#45;&gt;6</title>
<path fill="none" stroke="grey" stroke-width="2" d="M122.5,-575.7C122.5,-567.98 122.5,-558.71 122.5,-550.11"/>
<polygon fill="grey" stroke="grey" stroke-width="2" points="126,-550.1 122.5,-540.1 119,-550.1 126,-550.1"/>
</g>
<!-- 8&#45;&gt;0 -->
<g id="edge2" class="edge">
<title>8&#45;&gt;0</title>
<path fill="none" stroke="grey" stroke-width="2" d="M122.5,-71.7C122.5,-63.98 122.5,-54.71 122.5,-46.11"/>
<polygon fill="grey" stroke="grey" stroke-width="2" points="126,-46.1 122.5,-36.1 119,-46.1 126,-46.1"/>
</g>
<!-- 9&#45;&gt;0 -->
<g id="edge3" class="edge">
<title>9&#45;&gt;0</title>
<path fill="none" stroke="grey" stroke-width="2" d="M180.47,-71.7C170.96,-63.05 159.29,-52.45 148.93,-43.03"/>
<polygon fill="grey" stroke="grey" stroke-width="2" points="151.07,-40.24 141.31,-36.1 146.36,-45.42 151.07,-40.24"/>
</g>
</g>
</svg>
