<?xml version="1.0" encoding="UTF-8" standalone="no"?>
<!DOCTYPE svg PUBLIC "-//W3C//DTD SVG 1.1//EN"
 "http://www.w3.org/Graphics/SVG/1.1/DTD/svg11.dtd">
<!-- Generated by graphviz version 2.42.3 (20191010.1750)
 -->
<!-- Title: snakemake_dag Pages: 1 -->
<svg width="642pt" height="332pt"
 viewBox="0.00 0.00 642.00 332.00" xmlns="http://www.w3.org/2000/svg" xmlns:xlink="http://www.w3.org/1999/xlink">
<g id="graph0" class="graph" transform="scale(1 1) rotate(0) translate(4 328)">
<title>snakemake_dag</title>
<polygon fill="white" stroke="transparent" points="-4,4 -4,-328 638,-328 638,4 -4,4"/>
<!-- 0 -->
<g id="node1" class="node">
<title>0</title>
<path fill="none" stroke="#70d856" stroke-width="2" stroke-dasharray="5,2" d="M405.5,-36C405.5,-36 375.5,-36 375.5,-36 369.5,-36 363.5,-30 363.5,-24 363.5,-24 363.5,-12 363.5,-12 363.5,-6 369.5,0 375.5,0 375.5,0 405.5,0 405.5,0 411.5,0 417.5,-6 417.5,-12 417.5,-12 417.5,-24 417.5,-24 417.5,-30 411.5,-36 405.5,-36"/>
<text text-anchor="middle" x="390.5" y="-15.5" font-family="sans" font-size="10.00">all</text>
</g>
<!-- 1 -->
<g id="node2" class="node">
<title>1</title>
<path fill="none" stroke="#afd856" stroke-width="2" stroke-dasharray="5,2" d="M233,-108C233,-108 12,-108 12,-108 6,-108 0,-102 0,-96 0,-96 0,-84 0,-84 0,-78 6,-72 12,-72 12,-72 233,-72 233,-72 239,-72 245,-78 245,-84 245,-84 245,-96 245,-96 245,-102 239,-108 233,-108"/>
<text text-anchor="middle" x="122.5" y="-93" font-family="sans" font-size="10.00">reads_stat</text>
<text text-anchor="middle" x="122.5" y="-82" font-family="sans" font-size="10.00">sample: FAO60983_pass_barcode02_b01ddb04</text>
</g>
<!-- 1&#45;&gt;0 -->
<g id="edge1" class="edge">
<title>1&#45;&gt;0</title>
<path fill="none" stroke="grey" stroke-width="2" d="M187.72,-71.97C239.79,-58.37 310.86,-39.8 353.57,-28.65"/>
<polygon fill="grey" stroke="grey" stroke-width="2" points="354.47,-32.03 363.26,-26.11 352.7,-25.25 354.47,-32.03"/>
</g>
<!-- 2 -->
<g id="node3" class="node">
<title>2</title>
<path fill="none" stroke="#d88d56" stroke-width="2" stroke-dasharray="5,2" d="M320,-108C320,-108 275,-108 275,-108 269,-108 263,-102 263,-96 263,-96 263,-84 263,-84 263,-78 269,-72 275,-72 275,-72 320,-72 320,-72 326,-72 332,-78 332,-84 332,-84 332,-96 332,-96 332,-102 326,-108 320,-108"/>
<text text-anchor="middle" x="297.5" y="-87.5" font-family="sans" font-size="10.00">depth_calc</text>
</g>
<!-- 2&#45;&gt;0 -->
<g id="edge2" class="edge">
<title>2&#45;&gt;0</title>
<path fill="none" stroke="grey" stroke-width="2" d="M320.49,-71.7C332.31,-62.8 346.89,-51.82 359.68,-42.2"/>
<polygon fill="grey" stroke="grey" stroke-width="2" points="361.89,-44.91 367.78,-36.1 357.68,-39.32 361.89,-44.91"/>
</g>
<!-- 3 -->
<g id="node4" class="node">
<title>3</title>
<path fill="none" stroke="#d85656" stroke-width="2" stroke-dasharray="5,2" d="M344.5,-180C344.5,-180 306.5,-180 306.5,-180 300.5,-180 294.5,-174 294.5,-168 294.5,-168 294.5,-156 294.5,-156 294.5,-150 300.5,-144 306.5,-144 306.5,-144 344.5,-144 344.5,-144 350.5,-144 356.5,-150 356.5,-156 356.5,-156 356.5,-168 356.5,-168 356.5,-174 350.5,-180 344.5,-180"/>
<text text-anchor="middle" x="325.5" y="-159.5" font-family="sans" font-size="10.00">sort_bam</text>
</g>
<!-- 3&#45;&gt;2 -->
<g id="edge6" class="edge">
<title>3&#45;&gt;2</title>
<path fill="none" stroke="grey" stroke-width="2" d="M318.58,-143.7C315.43,-135.81 311.62,-126.3 308.12,-117.55"/>
<polygon fill="grey" stroke="grey" stroke-width="2" points="311.31,-116.09 304.34,-108.1 304.81,-118.69 311.31,-116.09"/>
</g>
<!-- 6 -->
<g id="node7" class="node">
<title>6</title>
<path fill="none" stroke="#56d8a9" stroke-width="2" stroke-dasharray="5,2" d="M418.5,-108C418.5,-108 362.5,-108 362.5,-108 356.5,-108 350.5,-102 350.5,-96 350.5,-96 350.5,-84 350.5,-84 350.5,-78 356.5,-72 362.5,-72 362.5,-72 418.5,-72 418.5,-72 424.5,-72 430.5,-78 430.5,-84 430.5,-84 430.5,-96 430.5,-96 430.5,-102 424.5,-108 418.5,-108"/>
<text text-anchor="middle" x="390.5" y="-87.5" font-family="sans" font-size="10.00">sam_flagstat</text>
</g>
<!-- 3&#45;&gt;6 -->
<g id="edge9" class="edge">
<title>3&#45;&gt;6</title>
<path fill="none" stroke="grey" stroke-width="2" d="M341.57,-143.7C349.44,-135.22 359.06,-124.86 367.67,-115.58"/>
<polygon fill="grey" stroke="grey" stroke-width="2" points="370.38,-117.81 374.62,-108.1 365.25,-113.05 370.38,-117.81"/>
</g>
<!-- 4 -->
<g id="node5" class="node">
<title>4</title>
<path fill="none" stroke="#56c9d8" stroke-width="2" stroke-dasharray="5,2" d="M346,-252C346,-252 305,-252 305,-252 299,-252 293,-246 293,-240 293,-240 293,-228 293,-228 293,-222 299,-216 305,-216 305,-216 346,-216 346,-216 352,-216 358,-222 358,-228 358,-228 358,-240 358,-240 358,-246 352,-252 346,-252"/>
<text text-anchor="middle" x="325.5" y="-231.5" font-family="sans" font-size="10.00">sam2bam</text>
</g>
<!-- 4&#45;&gt;3 -->
<g id="edge7" class="edge">
<title>4&#45;&gt;3</title>
<path fill="none" stroke="grey" stroke-width="2" d="M325.5,-215.7C325.5,-207.98 325.5,-198.71 325.5,-190.11"/>
<polygon fill="grey" stroke="grey" stroke-width="2" points="329,-190.1 325.5,-180.1 322,-190.1 329,-190.1"/>
</g>
<!-- 5 -->
<g id="node6" class="node">
<title>5</title>
<path fill="none" stroke="#5692d8" stroke-width="2" stroke-dasharray="5,2" d="M436,-324C436,-324 215,-324 215,-324 209,-324 203,-318 203,-312 203,-312 203,-300 203,-300 203,-294 209,-288 215,-288 215,-288 436,-288 436,-288 442,-288 448,-294 448,-300 448,-300 448,-312 448,-312 448,-318 442,-324 436,-324"/>
<text text-anchor="middle" x="325.5" y="-309" font-family="sans" font-size="10.00">minimap</text>
<text text-anchor="middle" x="325.5" y="-298" font-family="sans" font-size="10.00">sample: FAO60983_pass_barcode02_b01ddb04</text>
</g>
<!-- 5&#45;&gt;4 -->
<g id="edge8" class="edge">
<title>5&#45;&gt;4</title>
<path fill="none" stroke="grey" stroke-width="2" d="M325.5,-287.7C325.5,-279.98 325.5,-270.71 325.5,-262.11"/>
<polygon fill="grey" stroke="grey" stroke-width="2" points="329,-262.1 325.5,-252.1 322,-262.1 329,-262.1"/>
</g>
<!-- 6&#45;&gt;0 -->
<g id="edge3" class="edge">
<title>6&#45;&gt;0</title>
<path fill="none" stroke="grey" stroke-width="2" d="M390.5,-71.7C390.5,-63.98 390.5,-54.71 390.5,-46.11"/>
<polygon fill="grey" stroke="grey" stroke-width="2" points="394,-46.1 390.5,-36.1 387,-46.1 394,-46.1"/>
</g>
<!-- 7 -->
<g id="node8" class="node">
<title>7</title>
<path fill="none" stroke="#d8cb56" stroke-width="2" stroke-dasharray="5,2" d="M622,-180C622,-180 401,-180 401,-180 395,-180 389,-174 389,-168 389,-168 389,-156 389,-156 389,-150 395,-144 401,-144 401,-144 622,-144 622,-144 628,-144 634,-150 634,-156 634,-156 634,-168 634,-168 634,-174 628,-180 622,-180"/>
<text text-anchor="middle" x="511.5" y="-165" font-family="sans" font-size="10.00">denovo</text>
<text text-anchor="middle" x="511.5" y="-154" font-family="sans" font-size="10.00">sample: FAO60983_pass_barcode02_b01ddb04</text>
</g>
<!-- 7&#45;&gt;0 -->
<g id="edge4" class="edge">
<title>7&#45;&gt;0</title>
<path fill="none" stroke="grey" stroke-width="2" d="M498.29,-144C484.09,-125.88 460.69,-96.5 439.5,-72 431.38,-62.62 422.22,-52.57 414.03,-43.77"/>
<polygon fill="grey" stroke="grey" stroke-width="2" points="416.52,-41.31 407.13,-36.4 411.41,-46.09 416.52,-41.31"/>
</g>
<!-- 8 -->
<g id="node9" class="node">
<title>8</title>
<path fill="none" stroke="#56d873" stroke-width="2" stroke-dasharray="5,2" d="M554,-108C554,-108 499,-108 499,-108 493,-108 487,-102 487,-96 487,-96 487,-84 487,-84 487,-78 493,-72 499,-72 499,-72 554,-72 554,-72 560,-72 566,-78 566,-84 566,-84 566,-96 566,-96 566,-102 560,-108 554,-108"/>
<text text-anchor="middle" x="526.5" y="-87.5" font-family="sans" font-size="10.00">assemb_stat</text>
</g>
<!-- 7&#45;&gt;8 -->
<g id="edge10" class="edge">
<title>7&#45;&gt;8</title>
<path fill="none" stroke="grey" stroke-width="2" d="M515.21,-143.7C516.86,-135.98 518.85,-126.71 520.69,-118.11"/>
<polygon fill="grey" stroke="grey" stroke-width="2" points="524.16,-118.62 522.83,-108.1 517.32,-117.15 524.16,-118.62"/>
</g>
<!-- 8&#45;&gt;0 -->
<g id="edge5" class="edge">
<title>8&#45;&gt;0</title>
<path fill="none" stroke="grey" stroke-width="2" d="M493.23,-71.88C473.18,-61.56 447.63,-48.4 427.02,-37.8"/>
<polygon fill="grey" stroke="grey" stroke-width="2" points="428.43,-34.59 417.94,-33.12 425.23,-40.81 428.43,-34.59"/>
</g>
</g>
</svg>
