<?xml version="1.0" encoding="UTF-8" standalone="no"?>
<!DOCTYPE svg PUBLIC "-//W3C//DTD SVG 1.1//EN"
 "http://www.w3.org/Graphics/SVG/1.1/DTD/svg11.dtd">
<!-- Generated by graphviz version 2.42.3 (20191010.1750)
 -->
<!-- Title: snakemake_dag Pages: 1 -->
<svg width="368pt" height="625pt"
 viewBox="0.00 0.00 368.00 625.00" xmlns="http://www.w3.org/2000/svg" xmlns:xlink="http://www.w3.org/1999/xlink">
<g id="graph0" class="graph" transform="scale(1 1) rotate(0) translate(4 621)">
<title>snakemake_dag</title>
<polygon fill="white" stroke="transparent" points="-4,4 -4,-621 364,-621 364,4 -4,4"/>
<!-- 0 -->
<g id="node1" class="node">
<title>0</title>
<path fill="none" stroke="#56d87b" stroke-width="2" d="M195,-36C195,-36 165,-36 165,-36 159,-36 153,-30 153,-24 153,-24 153,-12 153,-12 153,-6 159,0 165,0 165,0 195,0 195,0 201,0 207,-6 207,-12 207,-12 207,-24 207,-24 207,-30 201,-36 195,-36"/>
<text text-anchor="middle" x="180" y="-15.5" font-family="sans" font-size="10.00">all</text>
</g>
<!-- 1 -->
<g id="node2" class="node">
<title>1</title>
<path fill="none" stroke="#569ad8" stroke-width="2" d="M196,-180C196,-180 164,-180 164,-180 158,-180 152,-174 152,-168 152,-168 152,-156 152,-156 152,-150 158,-144 164,-144 164,-144 196,-144 196,-144 202,-144 208,-150 208,-156 208,-156 208,-168 208,-168 208,-174 202,-180 196,-180"/>
<text text-anchor="middle" x="180" y="-159.5" font-family="sans" font-size="10.00">circlator</text>
</g>
<!-- 1&#45;&gt;0 -->
<g id="edge1" class="edge">
<title>1&#45;&gt;0</title>
<path fill="none" stroke="grey" stroke-width="2" d="M161.83,-143.68C153.12,-134.1 143.59,-121.43 139,-108 133.83,-92.86 133.83,-87.14 139,-72 142.44,-61.93 148.66,-52.28 155.23,-44.05"/>
<polygon fill="grey" stroke="grey" stroke-width="2" points="158,-46.2 161.83,-36.32 152.68,-41.65 158,-46.2"/>
</g>
<!-- 8 -->
<g id="node9" class="node">
<title>8</title>
<path fill="none" stroke="#56b9d8" stroke-width="2" d="M200,-108C200,-108 160,-108 160,-108 154,-108 148,-102 148,-96 148,-96 148,-84 148,-84 148,-78 154,-72 160,-72 160,-72 200,-72 200,-72 206,-72 212,-78 212,-84 212,-84 212,-96 212,-96 212,-102 206,-108 200,-108"/>
<text text-anchor="middle" x="180" y="-87.5" font-family="sans" font-size="10.00">amrfinder</text>
</g>
<!-- 1&#45;&gt;8 -->
<g id="edge10" class="edge">
<title>1&#45;&gt;8</title>
<path fill="none" stroke="grey" stroke-width="2" d="M180,-143.7C180,-135.98 180,-126.71 180,-118.11"/>
<polygon fill="grey" stroke="grey" stroke-width="2" points="183.5,-118.1 180,-108.1 176.5,-118.1 183.5,-118.1"/>
</g>
<!-- 9 -->
<g id="node10" class="node">
<title>9</title>
<path fill="none" stroke="#d87556" stroke-width="2" d="M272,-108C272,-108 242,-108 242,-108 236,-108 230,-102 230,-96 230,-96 230,-84 230,-84 230,-78 236,-72 242,-72 242,-72 272,-72 272,-72 278,-72 284,-78 284,-84 284,-84 284,-96 284,-96 284,-102 278,-108 272,-108"/>
<text text-anchor="middle" x="257" y="-87.5" font-family="sans" font-size="10.00">prokka</text>
</g>
<!-- 1&#45;&gt;9 -->
<g id="edge11" class="edge">
<title>1&#45;&gt;9</title>
<path fill="none" stroke="grey" stroke-width="2" d="M199.03,-143.7C208.54,-135.05 220.21,-124.45 230.57,-115.03"/>
<polygon fill="grey" stroke="grey" stroke-width="2" points="233.14,-117.42 238.19,-108.1 228.43,-112.24 233.14,-117.42"/>
</g>
<!-- 2 -->
<g id="node3" class="node">
<title>2</title>
<path fill="none" stroke="#d89556" stroke-width="2" d="M196,-252C196,-252 164,-252 164,-252 158,-252 152,-246 152,-240 152,-240 152,-228 152,-228 152,-222 158,-216 164,-216 164,-216 196,-216 196,-216 202,-216 208,-222 208,-228 208,-228 208,-240 208,-240 208,-246 202,-252 196,-252"/>
<text text-anchor="middle" x="180" y="-231.5" font-family="sans" font-size="10.00">medaka</text>
</g>
<!-- 2&#45;&gt;1 -->
<g id="edge4" class="edge">
<title>2&#45;&gt;1</title>
<path fill="none" stroke="grey" stroke-width="2" d="M180,-215.7C180,-207.98 180,-198.71 180,-190.11"/>
<polygon fill="grey" stroke="grey" stroke-width="2" points="183.5,-190.1 180,-180.1 176.5,-190.1 183.5,-190.1"/>
</g>
<!-- 3 -->
<g id="node4" class="node">
<title>3</title>
<path fill="none" stroke="#78d856" stroke-width="2" d="M196,-324C196,-324 164,-324 164,-324 158,-324 152,-318 152,-312 152,-312 152,-300 152,-300 152,-294 158,-288 164,-288 164,-288 196,-288 196,-288 202,-288 208,-294 208,-300 208,-300 208,-312 208,-312 208,-318 202,-324 196,-324"/>
<text text-anchor="middle" x="180" y="-303.5" font-family="sans" font-size="10.00">raconX4</text>
</g>
<!-- 3&#45;&gt;2 -->
<g id="edge5" class="edge">
<title>3&#45;&gt;2</title>
<path fill="none" stroke="grey" stroke-width="2" d="M180,-287.7C180,-279.98 180,-270.71 180,-262.11"/>
<polygon fill="grey" stroke="grey" stroke-width="2" points="183.5,-262.1 180,-252.1 176.5,-262.1 183.5,-262.1"/>
</g>
<!-- 4 -->
<g id="node5" class="node">
<title>4</title>
<path fill="none" stroke="#56d8d8" stroke-width="2" d="M196,-396C196,-396 164,-396 164,-396 158,-396 152,-390 152,-384 152,-384 152,-372 152,-372 152,-366 158,-360 164,-360 164,-360 196,-360 196,-360 202,-360 208,-366 208,-372 208,-372 208,-384 208,-384 208,-390 202,-396 196,-396"/>
<text text-anchor="middle" x="180" y="-375.5" font-family="sans" font-size="10.00">raconX3</text>
</g>
<!-- 4&#45;&gt;3 -->
<g id="edge6" class="edge">
<title>4&#45;&gt;3</title>
<path fill="none" stroke="grey" stroke-width="2" d="M180,-359.7C180,-351.98 180,-342.71 180,-334.11"/>
<polygon fill="grey" stroke="grey" stroke-width="2" points="183.5,-334.1 180,-324.1 176.5,-334.1 183.5,-334.1"/>
</g>
<!-- 5 -->
<g id="node6" class="node">
<title>5</title>
<path fill="none" stroke="#97d856" stroke-width="2" d="M196,-468C196,-468 164,-468 164,-468 158,-468 152,-462 152,-456 152,-456 152,-444 152,-444 152,-438 158,-432 164,-432 164,-432 196,-432 196,-432 202,-432 208,-438 208,-444 208,-444 208,-456 208,-456 208,-462 202,-468 196,-468"/>
<text text-anchor="middle" x="180" y="-447.5" font-family="sans" font-size="10.00">raconX2</text>
</g>
<!-- 5&#45;&gt;4 -->
<g id="edge7" class="edge">
<title>5&#45;&gt;4</title>
<path fill="none" stroke="grey" stroke-width="2" d="M180,-431.7C180,-423.98 180,-414.71 180,-406.11"/>
<polygon fill="grey" stroke="grey" stroke-width="2" points="183.5,-406.1 180,-396.1 176.5,-406.1 183.5,-406.1"/>
</g>
<!-- 6 -->
<g id="node7" class="node">
<title>6</title>
<path fill="none" stroke="#56d8b9" stroke-width="2" d="M196,-540C196,-540 164,-540 164,-540 158,-540 152,-534 152,-528 152,-528 152,-516 152,-516 152,-510 158,-504 164,-504 164,-504 196,-504 196,-504 202,-504 208,-510 208,-516 208,-516 208,-528 208,-528 208,-534 202,-540 196,-540"/>
<text text-anchor="middle" x="180" y="-519.5" font-family="sans" font-size="10.00">raconX1</text>
</g>
<!-- 6&#45;&gt;5 -->
<g id="edge8" class="edge">
<title>6&#45;&gt;5</title>
<path fill="none" stroke="grey" stroke-width="2" d="M180,-503.7C180,-495.98 180,-486.71 180,-478.11"/>
<polygon fill="grey" stroke="grey" stroke-width="2" points="183.5,-478.1 180,-468.1 176.5,-478.1 183.5,-478.1"/>
</g>
<!-- 7 -->
<g id="node8" class="node">
<title>7</title>
<path fill="none" stroke="#b6d856" stroke-width="2" d="M348,-617C348,-617 12,-617 12,-617 6,-617 0,-611 0,-605 0,-605 0,-588 0,-588 0,-582 6,-576 12,-576 12,-576 348,-576 348,-576 354,-576 360,-582 360,-588 360,-588 360,-605 360,-605 360,-611 354,-617 348,-617"/>
<text text-anchor="middle" x="180" y="-605" font-family="sans" font-size="10.00">denovo</text>
<text text-anchor="middle" x="180" y="-594" font-family="sans" font-size="10.00">root: /home/ubuntu/data/belson/isangi_nanopore/qc/results/2021.02.06</text>
<text text-anchor="middle" x="180" y="-583" font-family="sans" font-size="10.00">sample: CHF10J</text>
</g>
<!-- 7&#45;&gt;6 -->
<g id="edge9" class="edge">
<title>7&#45;&gt;6</title>
<path fill="none" stroke="grey" stroke-width="2" d="M180,-575.69C180,-567.91 180,-558.84 180,-550.45"/>
<polygon fill="grey" stroke="grey" stroke-width="2" points="183.5,-550.32 180,-540.32 176.5,-550.32 183.5,-550.32"/>
</g>
<!-- 8&#45;&gt;0 -->
<g id="edge2" class="edge">
<title>8&#45;&gt;0</title>
<path fill="none" stroke="grey" stroke-width="2" d="M180,-71.7C180,-63.98 180,-54.71 180,-46.11"/>
<polygon fill="grey" stroke="grey" stroke-width="2" points="183.5,-46.1 180,-36.1 176.5,-46.1 183.5,-46.1"/>
</g>
<!-- 9&#45;&gt;0 -->
<g id="edge3" class="edge">
<title>9&#45;&gt;0</title>
<path fill="none" stroke="grey" stroke-width="2" d="M237.97,-71.7C228.46,-63.05 216.79,-52.45 206.43,-43.03"/>
<polygon fill="grey" stroke="grey" stroke-width="2" points="208.57,-40.24 198.81,-36.1 203.86,-45.42 208.57,-40.24"/>
</g>
</g>
</svg>
