<?xml version="1.0" encoding="UTF-8" standalone="no"?>
<!DOCTYPE svg PUBLIC "-//W3C//DTD SVG 1.1//EN"
 "http://www.w3.org/Graphics/SVG/1.1/DTD/svg11.dtd">
<!-- Generated by graphviz version 2.42.3 (20191010.1750)
 -->
<!-- Title: snakemake_dag Pages: 1 -->
<svg width="854pt" height="625pt"
 viewBox="0.00 0.00 854.00 625.00" xmlns="http://www.w3.org/2000/svg" xmlns:xlink="http://www.w3.org/1999/xlink">
<g id="graph0" class="graph" transform="scale(1 1) rotate(0) translate(4 621)">
<title>snakemake_dag</title>
<polygon fill="white" stroke="transparent" points="-4,4 -4,-621 850,-621 850,4 -4,4"/>
<!-- 0 -->
<g id="node1" class="node">
<title>0</title>
<path fill="none" stroke="#d8b456" stroke-width="2" stroke-dasharray="5,2" d="M304,-36C304,-36 274,-36 274,-36 268,-36 262,-30 262,-24 262,-24 262,-12 262,-12 262,-6 268,0 274,0 274,0 304,0 304,0 310,0 316,-6 316,-12 316,-12 316,-24 316,-24 316,-30 310,-36 304,-36"/>
<text text-anchor="middle" x="289" y="-15.5" font-family="sans" font-size="10.00">all</text>
</g>
<!-- 1 -->
<g id="node2" class="node">
<title>1</title>
<path fill="none" stroke="#9fd856" stroke-width="2" stroke-dasharray="5,2" d="M160.5,-540C160.5,-540 115.5,-540 115.5,-540 109.5,-540 103.5,-534 103.5,-528 103.5,-528 103.5,-516 103.5,-516 103.5,-510 109.5,-504 115.5,-504 115.5,-504 160.5,-504 160.5,-504 166.5,-504 172.5,-510 172.5,-516 172.5,-516 172.5,-528 172.5,-528 172.5,-534 166.5,-540 160.5,-540"/>
<text text-anchor="middle" x="138" y="-519.5" font-family="sans" font-size="10.00">polish_flye</text>
</g>
<!-- 1&#45;&gt;0 -->
<g id="edge1" class="edge">
<title>1&#45;&gt;0</title>
<path fill="none" stroke="grey" stroke-width="2" d="M138,-503.95C138,-477.29 138,-424.11 138,-379 138,-379 138,-379 138,-161 138,-98.34 207.85,-55.23 252.54,-34.06"/>
<polygon fill="grey" stroke="grey" stroke-width="2" points="254.03,-37.23 261.66,-29.88 251.11,-30.86 254.03,-37.23"/>
</g>
<!-- 2 -->
<g id="node3" class="node">
<title>2</title>
<path fill="none" stroke="#d89556" stroke-width="2" stroke-dasharray="5,2" d="M344,-617C344,-617 12,-617 12,-617 6,-617 0,-611 0,-605 0,-605 0,-588 0,-588 0,-582 6,-576 12,-576 12,-576 344,-576 344,-576 350,-576 356,-582 356,-588 356,-588 356,-605 356,-605 356,-611 350,-617 344,-617"/>
<text text-anchor="middle" x="178" y="-605" font-family="sans" font-size="10.00">denovo</text>
<text text-anchor="middle" x="178" y="-594" font-family="sans" font-size="10.00">res: /home/ubuntu/data/belson/isangi_nanopore/qc/results/2021.02.16</text>
<text text-anchor="middle" x="178" y="-583" font-family="sans" font-size="10.00">sample: CHF10J</text>
</g>
<!-- 2&#45;&gt;1 -->
<g id="edge9" class="edge">
<title>2&#45;&gt;1</title>
<path fill="none" stroke="grey" stroke-width="2" d="M167.07,-575.69C162.59,-567.56 157.33,-558.03 152.53,-549.33"/>
<polygon fill="grey" stroke="grey" stroke-width="2" points="155.45,-547.38 147.56,-540.32 149.32,-550.77 155.45,-547.38"/>
</g>
<!-- 4 -->
<g id="node5" class="node">
<title>4</title>
<path fill="none" stroke="#56d8a2" stroke-width="2" stroke-dasharray="5,2" d="M235,-540C235,-540 203,-540 203,-540 197,-540 191,-534 191,-528 191,-528 191,-516 191,-516 191,-510 197,-504 203,-504 203,-504 235,-504 235,-504 241,-504 247,-510 247,-516 247,-516 247,-528 247,-528 247,-534 241,-540 235,-540"/>
<text text-anchor="middle" x="219" y="-519.5" font-family="sans" font-size="10.00">raconX1</text>
</g>
<!-- 2&#45;&gt;4 -->
<g id="edge11" class="edge">
<title>2&#45;&gt;4</title>
<path fill="none" stroke="grey" stroke-width="2" d="M189.2,-575.69C193.85,-567.47 199.3,-557.83 204.27,-549.05"/>
<polygon fill="grey" stroke="grey" stroke-width="2" points="207.33,-550.75 209.21,-540.32 201.24,-547.3 207.33,-550.75"/>
</g>
<!-- 3 -->
<g id="node4" class="node">
<title>3</title>
<path fill="none" stroke="#5673d8" stroke-width="2" stroke-dasharray="5,2" d="M245.5,-468C245.5,-468 178.5,-468 178.5,-468 172.5,-468 166.5,-462 166.5,-456 166.5,-456 166.5,-444 166.5,-444 166.5,-438 172.5,-432 178.5,-432 178.5,-432 245.5,-432 245.5,-432 251.5,-432 257.5,-438 257.5,-444 257.5,-444 257.5,-456 257.5,-456 257.5,-462 251.5,-468 245.5,-468"/>
<text text-anchor="middle" x="212" y="-447.5" font-family="sans" font-size="10.00">polish_raconX1</text>
</g>
<!-- 3&#45;&gt;0 -->
<g id="edge2" class="edge">
<title>3&#45;&gt;0</title>
<path fill="none" stroke="grey" stroke-width="2" d="M208.36,-431.6C203.1,-404.92 194,-352.23 194,-307 194,-307 194,-307 194,-161 194,-113.01 231.94,-68.96 259.87,-43.04"/>
<polygon fill="grey" stroke="grey" stroke-width="2" points="262.35,-45.52 267.44,-36.22 257.67,-40.31 262.35,-45.52"/>
</g>
<!-- 4&#45;&gt;3 -->
<g id="edge10" class="edge">
<title>4&#45;&gt;3</title>
<path fill="none" stroke="grey" stroke-width="2" d="M217.27,-503.7C216.5,-495.98 215.57,-486.71 214.71,-478.11"/>
<polygon fill="grey" stroke="grey" stroke-width="2" points="218.19,-477.71 213.71,-468.1 211.22,-478.4 218.19,-477.71"/>
</g>
<!-- 6 -->
<g id="node7" class="node">
<title>6</title>
<path fill="none" stroke="#d87556" stroke-width="2" stroke-dasharray="5,2" d="M320,-468C320,-468 288,-468 288,-468 282,-468 276,-462 276,-456 276,-456 276,-444 276,-444 276,-438 282,-432 288,-432 288,-432 320,-432 320,-432 326,-432 332,-438 332,-444 332,-444 332,-456 332,-456 332,-462 326,-468 320,-468"/>
<text text-anchor="middle" x="304" y="-447.5" font-family="sans" font-size="10.00">raconX2</text>
</g>
<!-- 4&#45;&gt;6 -->
<g id="edge13" class="edge">
<title>4&#45;&gt;6</title>
<path fill="none" stroke="grey" stroke-width="2" d="M240.01,-503.7C250.72,-494.88 263.89,-484.03 275.5,-474.47"/>
<polygon fill="grey" stroke="grey" stroke-width="2" points="277.74,-477.16 283.23,-468.1 273.29,-471.76 277.74,-477.16"/>
</g>
<!-- 5 -->
<g id="node6" class="node">
<title>5</title>
<path fill="none" stroke="#68d856" stroke-width="2" stroke-dasharray="5,2" d="M301.5,-396C301.5,-396 234.5,-396 234.5,-396 228.5,-396 222.5,-390 222.5,-384 222.5,-384 222.5,-372 222.5,-372 222.5,-366 228.5,-360 234.5,-360 234.5,-360 301.5,-360 301.5,-360 307.5,-360 313.5,-366 313.5,-372 313.5,-372 313.5,-384 313.5,-384 313.5,-390 307.5,-396 301.5,-396"/>
<text text-anchor="middle" x="268" y="-375.5" font-family="sans" font-size="10.00">polish_raconX2</text>
</g>
<!-- 5&#45;&gt;0 -->
<g id="edge3" class="edge">
<title>5&#45;&gt;0</title>
<path fill="none" stroke="grey" stroke-width="2" d="M260.71,-359.87C250.2,-333.53 232,-281.29 232,-235 232,-235 232,-235 232,-161 232,-117.8 255,-72.19 271.78,-44.66"/>
<polygon fill="grey" stroke="grey" stroke-width="2" points="274.83,-46.37 277.19,-36.04 268.91,-42.65 274.83,-46.37"/>
</g>
<!-- 6&#45;&gt;5 -->
<g id="edge12" class="edge">
<title>6&#45;&gt;5</title>
<path fill="none" stroke="grey" stroke-width="2" d="M295.1,-431.7C291,-423.73 286.05,-414.1 281.51,-405.26"/>
<polygon fill="grey" stroke="grey" stroke-width="2" points="284.48,-403.4 276.8,-396.1 278.26,-406.6 284.48,-403.4"/>
</g>
<!-- 8 -->
<g id="node9" class="node">
<title>8</title>
<path fill="none" stroke="#56d0d8" stroke-width="2" stroke-dasharray="5,2" d="M376,-396C376,-396 344,-396 344,-396 338,-396 332,-390 332,-384 332,-384 332,-372 332,-372 332,-366 338,-360 344,-360 344,-360 376,-360 376,-360 382,-360 388,-366 388,-372 388,-372 388,-384 388,-384 388,-390 382,-396 376,-396"/>
<text text-anchor="middle" x="360" y="-375.5" font-family="sans" font-size="10.00">raconX3</text>
</g>
<!-- 6&#45;&gt;8 -->
<g id="edge15" class="edge">
<title>6&#45;&gt;8</title>
<path fill="none" stroke="grey" stroke-width="2" d="M317.84,-431.7C324.49,-423.39 332.58,-413.28 339.89,-404.14"/>
<polygon fill="grey" stroke="grey" stroke-width="2" points="342.8,-406.1 346.32,-396.1 337.34,-401.73 342.8,-406.1"/>
</g>
<!-- 7 -->
<g id="node8" class="node">
<title>7</title>
<path fill="none" stroke="#d8d356" stroke-width="2" stroke-dasharray="5,2" d="M339.5,-324C339.5,-324 272.5,-324 272.5,-324 266.5,-324 260.5,-318 260.5,-312 260.5,-312 260.5,-300 260.5,-300 260.5,-294 266.5,-288 272.5,-288 272.5,-288 339.5,-288 339.5,-288 345.5,-288 351.5,-294 351.5,-300 351.5,-300 351.5,-312 351.5,-312 351.5,-318 345.5,-324 339.5,-324"/>
<text text-anchor="middle" x="306" y="-303.5" font-family="sans" font-size="10.00">polish_raconX3</text>
</g>
<!-- 7&#45;&gt;0 -->
<g id="edge4" class="edge">
<title>7&#45;&gt;0</title>
<path fill="none" stroke="grey" stroke-width="2" d="M299.37,-287.63C295.82,-277.42 291.82,-264.17 290,-252 278.95,-178.24 283.3,-89.87 286.6,-46.19"/>
<polygon fill="grey" stroke="grey" stroke-width="2" points="290.1,-46.33 287.4,-36.08 283.12,-45.77 290.1,-46.33"/>
</g>
<!-- 8&#45;&gt;7 -->
<g id="edge14" class="edge">
<title>8&#45;&gt;7</title>
<path fill="none" stroke="grey" stroke-width="2" d="M346.65,-359.7C340.24,-351.39 332.44,-341.28 325.39,-332.14"/>
<polygon fill="grey" stroke="grey" stroke-width="2" points="328.07,-329.88 319.19,-324.1 322.53,-334.16 328.07,-329.88"/>
</g>
<!-- 10 -->
<g id="node11" class="node">
<title>10</title>
<path fill="none" stroke="#88d856" stroke-width="2" stroke-dasharray="5,2" d="M414,-324C414,-324 382,-324 382,-324 376,-324 370,-318 370,-312 370,-312 370,-300 370,-300 370,-294 376,-288 382,-288 382,-288 414,-288 414,-288 420,-288 426,-294 426,-300 426,-300 426,-312 426,-312 426,-318 420,-324 414,-324"/>
<text text-anchor="middle" x="398" y="-303.5" font-family="sans" font-size="10.00">raconX4</text>
</g>
<!-- 8&#45;&gt;10 -->
<g id="edge17" class="edge">
<title>8&#45;&gt;10</title>
<path fill="none" stroke="grey" stroke-width="2" d="M369.39,-359.7C373.76,-351.64 379.06,-341.89 383.9,-332.98"/>
<polygon fill="grey" stroke="grey" stroke-width="2" points="387.02,-334.56 388.71,-324.1 380.87,-331.22 387.02,-334.56"/>
</g>
<!-- 9 -->
<g id="node10" class="node">
<title>9</title>
<path fill="none" stroke="#56d863" stroke-width="2" stroke-dasharray="5,2" d="M377.5,-252C377.5,-252 310.5,-252 310.5,-252 304.5,-252 298.5,-246 298.5,-240 298.5,-240 298.5,-228 298.5,-228 298.5,-222 304.5,-216 310.5,-216 310.5,-216 377.5,-216 377.5,-216 383.5,-216 389.5,-222 389.5,-228 389.5,-228 389.5,-240 389.5,-240 389.5,-246 383.5,-252 377.5,-252"/>
<text text-anchor="middle" x="344" y="-231.5" font-family="sans" font-size="10.00">polish_raconX4</text>
</g>
<!-- 9&#45;&gt;0 -->
<g id="edge5" class="edge">
<title>9&#45;&gt;0</title>
<path fill="none" stroke="grey" stroke-width="2" d="M339.59,-215.85C330.06,-178.75 307.46,-90.81 295.97,-46.1"/>
<polygon fill="grey" stroke="grey" stroke-width="2" points="299.31,-45.05 293.43,-36.23 292.53,-46.79 299.31,-45.05"/>
</g>
<!-- 10&#45;&gt;9 -->
<g id="edge16" class="edge">
<title>10&#45;&gt;9</title>
<path fill="none" stroke="grey" stroke-width="2" d="M384.65,-287.7C378.24,-279.39 370.44,-269.28 363.39,-260.14"/>
<polygon fill="grey" stroke="grey" stroke-width="2" points="366.07,-257.88 357.19,-252.1 360.53,-262.16 366.07,-257.88"/>
</g>
<!-- 12 -->
<g id="node13" class="node">
<title>12</title>
<path fill="none" stroke="#56d882" stroke-width="2" stroke-dasharray="5,2" d="M452,-252C452,-252 420,-252 420,-252 414,-252 408,-246 408,-240 408,-240 408,-228 408,-228 408,-222 414,-216 420,-216 420,-216 452,-216 452,-216 458,-216 464,-222 464,-228 464,-228 464,-240 464,-240 464,-246 458,-252 452,-252"/>
<text text-anchor="middle" x="436" y="-231.5" font-family="sans" font-size="10.00">medaka</text>
</g>
<!-- 10&#45;&gt;12 -->
<g id="edge19" class="edge">
<title>10&#45;&gt;12</title>
<path fill="none" stroke="grey" stroke-width="2" d="M407.39,-287.7C411.76,-279.64 417.06,-269.89 421.9,-260.98"/>
<polygon fill="grey" stroke="grey" stroke-width="2" points="425.02,-262.56 426.71,-252.1 418.87,-259.22 425.02,-262.56"/>
</g>
<!-- 11 -->
<g id="node12" class="node">
<title>11</title>
<path fill="none" stroke="#56d8c1" stroke-width="2" stroke-dasharray="5,2" d="M415.5,-108C415.5,-108 348.5,-108 348.5,-108 342.5,-108 336.5,-102 336.5,-96 336.5,-96 336.5,-84 336.5,-84 336.5,-78 342.5,-72 348.5,-72 348.5,-72 415.5,-72 415.5,-72 421.5,-72 427.5,-78 427.5,-84 427.5,-84 427.5,-96 427.5,-96 427.5,-102 421.5,-108 415.5,-108"/>
<text text-anchor="middle" x="382" y="-87.5" font-family="sans" font-size="10.00">polish_medaka</text>
</g>
<!-- 11&#45;&gt;0 -->
<g id="edge6" class="edge">
<title>11&#45;&gt;0</title>
<path fill="none" stroke="grey" stroke-width="2" d="M359.01,-71.7C347.19,-62.8 332.61,-51.82 319.82,-42.2"/>
<polygon fill="grey" stroke="grey" stroke-width="2" points="321.82,-39.32 311.72,-36.1 317.61,-44.91 321.82,-39.32"/>
</g>
<!-- 12&#45;&gt;11 -->
<g id="edge18" class="edge">
<title>12&#45;&gt;11</title>
<path fill="none" stroke="grey" stroke-width="2" d="M422.25,-215.79C414.93,-205.85 406.37,-192.81 401,-180 392.72,-160.24 387.88,-136.44 385.16,-118.42"/>
<polygon fill="grey" stroke="grey" stroke-width="2" points="388.59,-117.73 383.76,-108.3 381.66,-118.68 388.59,-117.73"/>
</g>
<!-- 14 -->
<g id="node15" class="node">
<title>14</title>
<path fill="none" stroke="#56b1d8" stroke-width="2" stroke-dasharray="5,2" d="M460,-180C460,-180 422,-180 422,-180 416,-180 410,-174 410,-168 410,-168 410,-156 410,-156 410,-150 416,-144 422,-144 422,-144 460,-144 460,-144 466,-144 472,-150 472,-156 472,-156 472,-168 472,-168 472,-174 466,-180 460,-180"/>
<text text-anchor="middle" x="441" y="-159.5" font-family="sans" font-size="10.00">medaka2</text>
</g>
<!-- 12&#45;&gt;14 -->
<g id="edge21" class="edge">
<title>12&#45;&gt;14</title>
<path fill="none" stroke="grey" stroke-width="2" d="M437.24,-215.7C437.79,-207.98 438.45,-198.71 439.06,-190.11"/>
<polygon fill="grey" stroke="grey" stroke-width="2" points="442.56,-190.33 439.78,-180.1 435.57,-189.83 442.56,-190.33"/>
</g>
<!-- 13 -->
<g id="node14" class="node">
<title>13</title>
<path fill="none" stroke="#bed856" stroke-width="2" stroke-dasharray="5,2" d="M530.5,-108C530.5,-108 457.5,-108 457.5,-108 451.5,-108 445.5,-102 445.5,-96 445.5,-96 445.5,-84 445.5,-84 445.5,-78 451.5,-72 457.5,-72 457.5,-72 530.5,-72 530.5,-72 536.5,-72 542.5,-78 542.5,-84 542.5,-84 542.5,-96 542.5,-96 542.5,-102 536.5,-108 530.5,-108"/>
<text text-anchor="middle" x="494" y="-87.5" font-family="sans" font-size="10.00">polish_medaka2</text>
</g>
<!-- 13&#45;&gt;0 -->
<g id="edge7" class="edge">
<title>13&#45;&gt;0</title>
<path fill="none" stroke="grey" stroke-width="2" d="M445.42,-72.41C408.83,-59.92 359.42,-43.05 326,-31.64"/>
<polygon fill="grey" stroke="grey" stroke-width="2" points="326.77,-28.2 316.18,-28.28 324.51,-34.82 326.77,-28.2"/>
</g>
<!-- 14&#45;&gt;13 -->
<g id="edge20" class="edge">
<title>14&#45;&gt;13</title>
<path fill="none" stroke="grey" stroke-width="2" d="M454.1,-143.7C460.39,-135.39 468.05,-125.28 474.96,-116.14"/>
<polygon fill="grey" stroke="grey" stroke-width="2" points="477.8,-118.19 481.05,-108.1 472.22,-113.96 477.8,-118.19"/>
</g>
<!-- 15 -->
<g id="node16" class="node">
<title>15</title>
<path fill="none" stroke="#5692d8" stroke-width="2" stroke-dasharray="5,2" d="M667,-108C667,-108 605,-108 605,-108 599,-108 593,-102 593,-96 593,-96 593,-84 593,-84 593,-78 599,-72 605,-72 605,-72 667,-72 667,-72 673,-72 679,-78 679,-84 679,-84 679,-96 679,-96 679,-102 673,-108 667,-108"/>
<text text-anchor="middle" x="636" y="-87.5" font-family="sans" font-size="10.00">polish_spades</text>
</g>
<!-- 15&#45;&gt;0 -->
<g id="edge8" class="edge">
<title>15&#45;&gt;0</title>
<path fill="none" stroke="grey" stroke-width="2" d="M592.84,-80.26C579.72,-77.6 565.27,-74.68 552,-72 471.49,-55.74 377.09,-36.73 326.15,-26.48"/>
<polygon fill="grey" stroke="grey" stroke-width="2" points="326.76,-23.03 316.26,-24.49 325.37,-29.89 326.76,-23.03"/>
</g>
<!-- 16 -->
<g id="node17" class="node">
<title>16</title>
<path fill="none" stroke="#d85656" stroke-width="2" stroke-dasharray="5,2" d="M834,-180C834,-180 502,-180 502,-180 496,-180 490,-174 490,-168 490,-168 490,-156 490,-156 490,-150 496,-144 502,-144 502,-144 834,-144 834,-144 840,-144 846,-150 846,-156 846,-156 846,-168 846,-168 846,-174 840,-180 834,-180"/>
<text text-anchor="middle" x="668" y="-165" font-family="sans" font-size="10.00">spades</text>
<text text-anchor="middle" x="668" y="-154" font-family="sans" font-size="10.00">res: /home/ubuntu/data/belson/isangi_nanopore/qc/results/2021.02.16</text>
</g>
<!-- 16&#45;&gt;15 -->
<g id="edge22" class="edge">
<title>16&#45;&gt;15</title>
<path fill="none" stroke="grey" stroke-width="2" d="M660.09,-143.7C656.45,-135.73 652.05,-126.1 648.01,-117.26"/>
<polygon fill="grey" stroke="grey" stroke-width="2" points="651.16,-115.74 643.82,-108.1 644.79,-118.65 651.16,-115.74"/>
</g>
</g>
</svg>
