<?xml version="1.0" encoding="UTF-8" standalone="no"?>
<!DOCTYPE svg PUBLIC "-//W3C//DTD SVG 1.1//EN"
 "http://www.w3.org/Graphics/SVG/1.1/DTD/svg11.dtd">
<!-- Generated by graphviz version 2.42.3 (20191010.1750)
 -->
<!-- Title: snakemake_dag Pages: 1 -->
<svg width="382pt" height="409pt"
 viewBox="0.00 0.00 382.00 409.00" xmlns="http://www.w3.org/2000/svg" xmlns:xlink="http://www.w3.org/1999/xlink">
<g id="graph0" class="graph" transform="scale(1 1) rotate(0) translate(4 405)">
<title>snakemake_dag</title>
<polygon fill="white" stroke="transparent" points="-4,4 -4,-405 378,-405 378,4 -4,4"/>
<!-- 0 -->
<g id="node1" class="node">
<title>0</title>
<path fill="none" stroke="#d8a456" stroke-width="2" d="M220,-36C220,-36 190,-36 190,-36 184,-36 178,-30 178,-24 178,-24 178,-12 178,-12 178,-6 184,0 190,0 190,0 220,0 220,0 226,0 232,-6 232,-12 232,-12 232,-24 232,-24 232,-30 226,-36 220,-36"/>
<text text-anchor="middle" x="205" y="-15.5" font-family="sans" font-size="10.00">all</text>
</g>
<!-- 1 -->
<g id="node2" class="node">
<title>1</title>
<path fill="none" stroke="#56d87b" stroke-width="2" d="M166.5,-252C166.5,-252 129.5,-252 129.5,-252 123.5,-252 117.5,-246 117.5,-240 117.5,-240 117.5,-228 117.5,-228 117.5,-222 123.5,-216 129.5,-216 129.5,-216 166.5,-216 166.5,-216 172.5,-216 178.5,-222 178.5,-228 178.5,-228 178.5,-240 178.5,-240 178.5,-246 172.5,-252 166.5,-252"/>
<text text-anchor="middle" x="148" y="-231.5" font-family="sans" font-size="10.00">flyePolca</text>
</g>
<!-- 1&#45;&gt;0 -->
<g id="edge1" class="edge">
<title>1&#45;&gt;0</title>
<path fill="none" stroke="grey" stroke-width="2" d="M152.57,-215.85C162.45,-178.75 185.87,-90.81 197.78,-46.1"/>
<polygon fill="grey" stroke="grey" stroke-width="2" points="201.22,-46.8 200.41,-36.23 194.45,-44.99 201.22,-46.8"/>
</g>
<!-- 2 -->
<g id="node3" class="node">
<title>2</title>
<path fill="none" stroke="#56d8c9" stroke-width="2" stroke-dasharray="5,2" d="M362,-401C362,-401 12,-401 12,-401 6,-401 0,-395 0,-389 0,-389 0,-372 0,-372 0,-366 6,-360 12,-360 12,-360 362,-360 362,-360 368,-360 374,-366 374,-372 374,-372 374,-389 374,-389 374,-395 368,-401 362,-401"/>
<text text-anchor="middle" x="187" y="-389" font-family="sans" font-size="10.00">flye</text>
<text text-anchor="middle" x="187" y="-378" font-family="sans" font-size="10.00">results: /home/ubuntu/data/belson/isangi_nanopore/qc/results/2021.04.16</text>
<text text-anchor="middle" x="187" y="-367" font-family="sans" font-size="10.00">sample: CHF10J</text>
</g>
<!-- 2&#45;&gt;1 -->
<g id="edge5" class="edge">
<title>2&#45;&gt;1</title>
<path fill="none" stroke="grey" stroke-width="2" d="M181.66,-359.71C174.82,-334.38 162.95,-290.37 155.28,-261.98"/>
<polygon fill="grey" stroke="grey" stroke-width="2" points="158.65,-261.04 152.67,-252.3 151.89,-262.86 158.65,-261.04"/>
</g>
<!-- 4 -->
<g id="node5" class="node">
<title>4</title>
<path fill="none" stroke="#78d856" stroke-width="2" stroke-dasharray="5,2" d="M239,-324C239,-324 203,-324 203,-324 197,-324 191,-318 191,-312 191,-312 191,-300 191,-300 191,-294 197,-288 203,-288 203,-288 239,-288 239,-288 245,-288 251,-294 251,-300 251,-300 251,-312 251,-312 251,-318 245,-324 239,-324"/>
<text text-anchor="middle" x="221" y="-303.5" font-family="sans" font-size="10.00">minimap</text>
</g>
<!-- 2&#45;&gt;4 -->
<g id="edge7" class="edge">
<title>2&#45;&gt;4</title>
<path fill="none" stroke="grey" stroke-width="2" d="M196.29,-359.69C200.06,-351.65 204.48,-342.24 208.52,-333.61"/>
<polygon fill="grey" stroke="grey" stroke-width="2" points="211.8,-334.86 212.88,-324.32 205.46,-331.89 211.8,-334.86"/>
</g>
<!-- 3 -->
<g id="node4" class="node">
<title>3</title>
<path fill="none" stroke="#d85656" stroke-width="2" stroke-dasharray="5,2" d="M243,-252C243,-252 209,-252 209,-252 203,-252 197,-246 197,-240 197,-240 197,-228 197,-228 197,-222 203,-216 209,-216 209,-216 243,-216 243,-216 249,-216 255,-222 255,-228 255,-228 255,-240 255,-240 255,-246 249,-252 243,-252"/>
<text text-anchor="middle" x="226" y="-231.5" font-family="sans" font-size="10.00">sortBam</text>
</g>
<!-- 3&#45;&gt;0 -->
<g id="edge2" class="edge">
<title>3&#45;&gt;0</title>
<path fill="none" stroke="grey" stroke-width="2" d="M217.28,-215.83C212.63,-205.69 207.38,-192.44 205,-180 196.15,-133.63 198.98,-78.36 201.93,-46.12"/>
<polygon fill="grey" stroke="grey" stroke-width="2" points="205.41,-46.41 202.91,-36.12 198.45,-45.73 205.41,-46.41"/>
</g>
<!-- 6 -->
<g id="node7" class="node">
<title>6</title>
<path fill="none" stroke="#c6d856" stroke-width="2" d="M256,-180C256,-180 226,-180 226,-180 220,-180 214,-174 214,-168 214,-168 214,-156 214,-156 214,-150 220,-144 226,-144 226,-144 256,-144 256,-144 262,-144 268,-150 268,-156 268,-156 268,-168 268,-168 268,-174 262,-180 256,-180"/>
<text text-anchor="middle" x="241" y="-159.5" font-family="sans" font-size="10.00">clair</text>
</g>
<!-- 3&#45;&gt;6 -->
<g id="edge9" class="edge">
<title>3&#45;&gt;6</title>
<path fill="none" stroke="grey" stroke-width="2" d="M229.71,-215.7C231.36,-207.98 233.35,-198.71 235.19,-190.11"/>
<polygon fill="grey" stroke="grey" stroke-width="2" points="238.66,-190.62 237.33,-180.1 231.82,-189.15 238.66,-190.62"/>
</g>
<!-- 4&#45;&gt;3 -->
<g id="edge6" class="edge">
<title>4&#45;&gt;3</title>
<path fill="none" stroke="grey" stroke-width="2" d="M222.24,-287.7C222.79,-279.98 223.45,-270.71 224.06,-262.11"/>
<polygon fill="grey" stroke="grey" stroke-width="2" points="227.56,-262.33 224.78,-252.1 220.57,-261.83 227.56,-262.33"/>
</g>
<!-- 5 -->
<g id="node6" class="node">
<title>5</title>
<path fill="none" stroke="#56a2d8" stroke-width="2" d="M304,-108C304,-108 264,-108 264,-108 258,-108 252,-102 252,-96 252,-96 252,-84 252,-84 252,-78 258,-72 264,-72 264,-72 304,-72 304,-72 310,-72 316,-78 316,-84 316,-84 316,-96 316,-96 316,-102 310,-108 304,-108"/>
<text text-anchor="middle" x="284" y="-87.5" font-family="sans" font-size="10.00">clairPolca</text>
</g>
<!-- 5&#45;&gt;0 -->
<g id="edge3" class="edge">
<title>5&#45;&gt;0</title>
<path fill="none" stroke="grey" stroke-width="2" d="M264.47,-71.7C254.62,-62.97 242.51,-52.24 231.8,-42.75"/>
<polygon fill="grey" stroke="grey" stroke-width="2" points="234.11,-40.12 224.3,-36.1 229.47,-45.36 234.11,-40.12"/>
</g>
<!-- 6&#45;&gt;0 -->
<g id="edge4" class="edge">
<title>6&#45;&gt;0</title>
<path fill="none" stroke="grey" stroke-width="2" d="M236.66,-143.87C230.5,-119.56 219.15,-74.82 211.85,-46.01"/>
<polygon fill="grey" stroke="grey" stroke-width="2" points="215.21,-45.02 209.36,-36.19 208.42,-46.74 215.21,-45.02"/>
</g>
<!-- 6&#45;&gt;5 -->
<g id="edge8" class="edge">
<title>6&#45;&gt;5</title>
<path fill="none" stroke="grey" stroke-width="2" d="M251.63,-143.7C256.63,-135.56 262.69,-125.69 268.21,-116.7"/>
<polygon fill="grey" stroke="grey" stroke-width="2" points="271.24,-118.46 273.49,-108.1 265.28,-114.79 271.24,-118.46"/>
</g>
</g>
</svg>
