<?xml version="1.0" encoding="UTF-8" standalone="no"?>
<!DOCTYPE svg PUBLIC "-//W3C//DTD SVG 1.1//EN"
 "http://www.w3.org/Graphics/SVG/1.1/DTD/svg11.dtd">
<!-- Generated by graphviz version 2.42.3 (20191010.1750)
 -->
<!-- Title: snakemake_dag Pages: 1 -->
<svg width="944pt" height="769pt"
 viewBox="0.00 0.00 944.00 769.00" xmlns="http://www.w3.org/2000/svg" xmlns:xlink="http://www.w3.org/1999/xlink">
<g id="graph0" class="graph" transform="scale(1 1) rotate(0) translate(4 765)">
<title>snakemake_dag</title>
<polygon fill="white" stroke="transparent" points="-4,4 -4,-765 940,-765 940,4 -4,4"/>
<!-- 0 -->
<g id="node1" class="node">
<title>0</title>
<path fill="none" stroke="#56d863" stroke-width="2" d="M372.5,-36C372.5,-36 342.5,-36 342.5,-36 336.5,-36 330.5,-30 330.5,-24 330.5,-24 330.5,-12 330.5,-12 330.5,-6 336.5,0 342.5,0 342.5,0 372.5,0 372.5,0 378.5,0 384.5,-6 384.5,-12 384.5,-12 384.5,-24 384.5,-24 384.5,-30 378.5,-36 372.5,-36"/>
<text text-anchor="middle" x="357.5" y="-15.5" font-family="sans" font-size="10.00">all</text>
</g>
<!-- 1 -->
<g id="node2" class="node">
<title>1</title>
<path fill="none" stroke="#d88d56" stroke-width="2" stroke-dasharray="5,2" d="M200.5,-252C200.5,-252 158.5,-252 158.5,-252 152.5,-252 146.5,-246 146.5,-240 146.5,-240 146.5,-228 146.5,-228 146.5,-222 152.5,-216 158.5,-216 158.5,-216 200.5,-216 200.5,-216 206.5,-216 212.5,-222 212.5,-228 212.5,-228 212.5,-240 212.5,-240 212.5,-246 206.5,-252 200.5,-252"/>
<text text-anchor="middle" x="179.5" y="-231.5" font-family="sans" font-size="10.00">polishFlye</text>
</g>
<!-- 1&#45;&gt;0 -->
<g id="edge1" class="edge">
<title>1&#45;&gt;0</title>
<path fill="none" stroke="grey" stroke-width="2" d="M180.21,-215.63C182.44,-183.32 191.62,-113.51 229.5,-72 253.25,-45.97 291.74,-32.38 320.32,-25.51"/>
<polygon fill="grey" stroke="grey" stroke-width="2" points="321.35,-28.86 330.35,-23.27 319.83,-22.03 321.35,-28.86"/>
</g>
<!-- 2 -->
<g id="node3" class="node">
<title>2</title>
<path fill="none" stroke="#56a9d8" stroke-width="2" stroke-dasharray="5,2" d="M409,-761C409,-761 12,-761 12,-761 6,-761 0,-755 0,-749 0,-749 0,-732 0,-732 0,-726 6,-720 12,-720 12,-720 409,-720 409,-720 415,-720 421,-726 421,-732 421,-732 421,-749 421,-749 421,-755 415,-761 409,-761"/>
<text text-anchor="middle" x="210.5" y="-749" font-family="sans" font-size="10.00">flye</text>
<text text-anchor="middle" x="210.5" y="-738" font-family="sans" font-size="10.00">results: /home/ubuntu/data/belson/isangi_nanopore/qc/results/polishing/2021.05.04</text>
<text text-anchor="middle" x="210.5" y="-727" font-family="sans" font-size="10.00">sample: CHF10J</text>
</g>
<!-- 2&#45;&gt;1 -->
<g id="edge10" class="edge">
<title>2&#45;&gt;1</title>
<path fill="none" stroke="grey" stroke-width="2" d="M202.1,-719.81C191.19,-692.37 173.5,-640.84 173.5,-595 173.5,-595 173.5,-595 173.5,-377 173.5,-336.96 175.91,-290.63 177.68,-262.07"/>
<polygon fill="grey" stroke="grey" stroke-width="2" points="181.17,-262.24 178.31,-252.04 174.19,-261.8 181.17,-262.24"/>
</g>
<!-- 4 -->
<g id="node5" class="node">
<title>4</title>
<path fill="none" stroke="#56d8b9" stroke-width="2" stroke-dasharray="5,2" d="M263.5,-684C263.5,-684 231.5,-684 231.5,-684 225.5,-684 219.5,-678 219.5,-672 219.5,-672 219.5,-660 219.5,-660 219.5,-654 225.5,-648 231.5,-648 231.5,-648 263.5,-648 263.5,-648 269.5,-648 275.5,-654 275.5,-660 275.5,-660 275.5,-672 275.5,-672 275.5,-678 269.5,-684 263.5,-684"/>
<text text-anchor="middle" x="247.5" y="-663.5" font-family="sans" font-size="10.00">raconX1</text>
</g>
<!-- 2&#45;&gt;4 -->
<g id="edge12" class="edge">
<title>2&#45;&gt;4</title>
<path fill="none" stroke="grey" stroke-width="2" d="M220.61,-719.69C224.76,-711.56 229.62,-702.03 234.06,-693.33"/>
<polygon fill="grey" stroke="grey" stroke-width="2" points="237.23,-694.82 238.66,-684.32 231,-691.64 237.23,-694.82"/>
</g>
<!-- 3 -->
<g id="node4" class="node">
<title>3</title>
<path fill="none" stroke="#56d882" stroke-width="2" stroke-dasharray="5,2" d="M281,-612C281,-612 214,-612 214,-612 208,-612 202,-606 202,-600 202,-600 202,-588 202,-588 202,-582 208,-576 214,-576 214,-576 281,-576 281,-576 287,-576 293,-582 293,-588 293,-588 293,-600 293,-600 293,-606 287,-612 281,-612"/>
<text text-anchor="middle" x="247.5" y="-591.5" font-family="sans" font-size="10.00">polish_raconX1</text>
</g>
<!-- 3&#45;&gt;0 -->
<g id="edge2" class="edge">
<title>3&#45;&gt;0</title>
<path fill="none" stroke="grey" stroke-width="2" d="M246.71,-575.96C245.54,-549.3 243.5,-496.13 243.5,-451 243.5,-451 243.5,-451 243.5,-161 243.5,-110 288.77,-66.88 322.26,-41.97"/>
<polygon fill="grey" stroke="grey" stroke-width="2" points="324.42,-44.73 330.48,-36.04 320.33,-39.05 324.42,-44.73"/>
</g>
<!-- 4&#45;&gt;3 -->
<g id="edge11" class="edge">
<title>4&#45;&gt;3</title>
<path fill="none" stroke="grey" stroke-width="2" d="M247.5,-647.7C247.5,-639.98 247.5,-630.71 247.5,-622.11"/>
<polygon fill="grey" stroke="grey" stroke-width="2" points="251,-622.1 247.5,-612.1 244,-622.1 251,-622.1"/>
</g>
<!-- 6 -->
<g id="node7" class="node">
<title>6</title>
<path fill="none" stroke="#80d856" stroke-width="2" stroke-dasharray="5,2" d="M355.5,-612C355.5,-612 323.5,-612 323.5,-612 317.5,-612 311.5,-606 311.5,-600 311.5,-600 311.5,-588 311.5,-588 311.5,-582 317.5,-576 323.5,-576 323.5,-576 355.5,-576 355.5,-576 361.5,-576 367.5,-582 367.5,-588 367.5,-588 367.5,-600 367.5,-600 367.5,-606 361.5,-612 355.5,-612"/>
<text text-anchor="middle" x="339.5" y="-591.5" font-family="sans" font-size="10.00">raconX2</text>
</g>
<!-- 4&#45;&gt;6 -->
<g id="edge14" class="edge">
<title>4&#45;&gt;6</title>
<path fill="none" stroke="grey" stroke-width="2" d="M270.24,-647.7C281.94,-638.8 296.36,-627.82 309.01,-618.2"/>
<polygon fill="grey" stroke="grey" stroke-width="2" points="311.18,-620.94 317.02,-612.1 306.94,-615.37 311.18,-620.94"/>
</g>
<!-- 5 -->
<g id="node6" class="node">
<title>5</title>
<path fill="none" stroke="#97d856" stroke-width="2" stroke-dasharray="5,2" d="M351,-540C351,-540 284,-540 284,-540 278,-540 272,-534 272,-528 272,-528 272,-516 272,-516 272,-510 278,-504 284,-504 284,-504 351,-504 351,-504 357,-504 363,-510 363,-516 363,-516 363,-528 363,-528 363,-534 357,-540 351,-540"/>
<text text-anchor="middle" x="317.5" y="-519.5" font-family="sans" font-size="10.00">polish_raconX2</text>
</g>
<!-- 5&#45;&gt;0 -->
<g id="edge3" class="edge">
<title>5&#45;&gt;0</title>
<path fill="none" stroke="grey" stroke-width="2" d="M310.21,-503.87C299.7,-477.53 281.5,-425.29 281.5,-379 281.5,-379 281.5,-379 281.5,-161 281.5,-115.64 312.02,-70.75 334.38,-43.95"/>
<polygon fill="grey" stroke="grey" stroke-width="2" points="337.14,-46.09 341.01,-36.23 331.84,-41.53 337.14,-46.09"/>
</g>
<!-- 6&#45;&gt;5 -->
<g id="edge13" class="edge">
<title>6&#45;&gt;5</title>
<path fill="none" stroke="grey" stroke-width="2" d="M334.06,-575.7C331.61,-567.9 328.66,-558.51 325.93,-549.83"/>
<polygon fill="grey" stroke="grey" stroke-width="2" points="329.21,-548.59 322.88,-540.1 322.54,-550.69 329.21,-548.59"/>
</g>
<!-- 8 -->
<g id="node9" class="node">
<title>8</title>
<path fill="none" stroke="#ced856" stroke-width="2" stroke-dasharray="5,2" d="M425.5,-540C425.5,-540 393.5,-540 393.5,-540 387.5,-540 381.5,-534 381.5,-528 381.5,-528 381.5,-516 381.5,-516 381.5,-510 387.5,-504 393.5,-504 393.5,-504 425.5,-504 425.5,-504 431.5,-504 437.5,-510 437.5,-516 437.5,-516 437.5,-528 437.5,-528 437.5,-534 431.5,-540 425.5,-540"/>
<text text-anchor="middle" x="409.5" y="-519.5" font-family="sans" font-size="10.00">raconX3</text>
</g>
<!-- 6&#45;&gt;8 -->
<g id="edge16" class="edge">
<title>6&#45;&gt;8</title>
<path fill="none" stroke="grey" stroke-width="2" d="M356.8,-575.7C365.36,-567.14 375.84,-556.66 385.2,-547.3"/>
<polygon fill="grey" stroke="grey" stroke-width="2" points="387.8,-549.65 392.4,-540.1 382.85,-544.7 387.8,-549.65"/>
</g>
<!-- 7 -->
<g id="node8" class="node">
<title>7</title>
<path fill="none" stroke="#d8ac56" stroke-width="2" stroke-dasharray="5,2" d="M389,-468C389,-468 322,-468 322,-468 316,-468 310,-462 310,-456 310,-456 310,-444 310,-444 310,-438 316,-432 322,-432 322,-432 389,-432 389,-432 395,-432 401,-438 401,-444 401,-444 401,-456 401,-456 401,-462 395,-468 389,-468"/>
<text text-anchor="middle" x="355.5" y="-447.5" font-family="sans" font-size="10.00">polish_raconX3</text>
</g>
<!-- 7&#45;&gt;0 -->
<g id="edge4" class="edge">
<title>7&#45;&gt;0</title>
<path fill="none" stroke="grey" stroke-width="2" d="M348.21,-431.87C337.7,-405.53 319.5,-353.29 319.5,-307 319.5,-307 319.5,-307 319.5,-161 319.5,-119.63 334.73,-73.72 345.91,-45.61"/>
<polygon fill="grey" stroke="grey" stroke-width="2" points="349.26,-46.67 349.81,-36.09 342.78,-44.02 349.26,-46.67"/>
</g>
<!-- 8&#45;&gt;7 -->
<g id="edge15" class="edge">
<title>8&#45;&gt;7</title>
<path fill="none" stroke="grey" stroke-width="2" d="M396.15,-503.7C389.74,-495.39 381.94,-485.28 374.89,-476.14"/>
<polygon fill="grey" stroke="grey" stroke-width="2" points="377.57,-473.88 368.69,-468.1 372.03,-478.16 377.57,-473.88"/>
</g>
<!-- 10 -->
<g id="node11" class="node">
<title>10</title>
<path fill="none" stroke="#56d8d0" stroke-width="2" stroke-dasharray="5,2" d="M463.5,-468C463.5,-468 431.5,-468 431.5,-468 425.5,-468 419.5,-462 419.5,-456 419.5,-456 419.5,-444 419.5,-444 419.5,-438 425.5,-432 431.5,-432 431.5,-432 463.5,-432 463.5,-432 469.5,-432 475.5,-438 475.5,-444 475.5,-444 475.5,-456 475.5,-456 475.5,-462 469.5,-468 463.5,-468"/>
<text text-anchor="middle" x="447.5" y="-447.5" font-family="sans" font-size="10.00">raconX4</text>
</g>
<!-- 8&#45;&gt;10 -->
<g id="edge18" class="edge">
<title>8&#45;&gt;10</title>
<path fill="none" stroke="grey" stroke-width="2" d="M418.89,-503.7C423.26,-495.64 428.56,-485.89 433.4,-476.98"/>
<polygon fill="grey" stroke="grey" stroke-width="2" points="436.52,-478.56 438.21,-468.1 430.37,-475.22 436.52,-478.56"/>
</g>
<!-- 9 -->
<g id="node10" class="node">
<title>9</title>
<path fill="none" stroke="#d8c356" stroke-width="2" stroke-dasharray="5,2" d="M427,-396C427,-396 360,-396 360,-396 354,-396 348,-390 348,-384 348,-384 348,-372 348,-372 348,-366 354,-360 360,-360 360,-360 427,-360 427,-360 433,-360 439,-366 439,-372 439,-372 439,-384 439,-384 439,-390 433,-396 427,-396"/>
<text text-anchor="middle" x="393.5" y="-375.5" font-family="sans" font-size="10.00">polish_raconX4</text>
</g>
<!-- 9&#45;&gt;0 -->
<g id="edge5" class="edge">
<title>9&#45;&gt;0</title>
<path fill="none" stroke="grey" stroke-width="2" d="M386.21,-359.87C375.7,-333.53 357.5,-281.29 357.5,-235 357.5,-235 357.5,-235 357.5,-161 357.5,-121 357.5,-74.65 357.5,-46.08"/>
<polygon fill="grey" stroke="grey" stroke-width="2" points="361,-46.05 357.5,-36.05 354,-46.05 361,-46.05"/>
</g>
<!-- 10&#45;&gt;9 -->
<g id="edge17" class="edge">
<title>10&#45;&gt;9</title>
<path fill="none" stroke="grey" stroke-width="2" d="M434.15,-431.7C427.74,-423.39 419.94,-413.28 412.89,-404.14"/>
<polygon fill="grey" stroke="grey" stroke-width="2" points="415.57,-401.88 406.69,-396.1 410.03,-406.16 415.57,-401.88"/>
</g>
<!-- 12 -->
<g id="node13" class="node">
<title>12</title>
<path fill="none" stroke="#568ad8" stroke-width="2" stroke-dasharray="5,2" d="M501.5,-396C501.5,-396 469.5,-396 469.5,-396 463.5,-396 457.5,-390 457.5,-384 457.5,-384 457.5,-372 457.5,-372 457.5,-366 463.5,-360 469.5,-360 469.5,-360 501.5,-360 501.5,-360 507.5,-360 513.5,-366 513.5,-372 513.5,-372 513.5,-384 513.5,-384 513.5,-390 507.5,-396 501.5,-396"/>
<text text-anchor="middle" x="485.5" y="-375.5" font-family="sans" font-size="10.00">medaka</text>
</g>
<!-- 10&#45;&gt;12 -->
<g id="edge20" class="edge">
<title>10&#45;&gt;12</title>
<path fill="none" stroke="grey" stroke-width="2" d="M456.89,-431.7C461.26,-423.64 466.56,-413.89 471.4,-404.98"/>
<polygon fill="grey" stroke="grey" stroke-width="2" points="474.52,-406.56 476.21,-396.1 468.37,-403.22 474.52,-406.56"/>
</g>
<!-- 11 -->
<g id="node12" class="node">
<title>11</title>
<path fill="none" stroke="#56c1d8" stroke-width="2" stroke-dasharray="5,2" d="M465,-324C465,-324 398,-324 398,-324 392,-324 386,-318 386,-312 386,-312 386,-300 386,-300 386,-294 392,-288 398,-288 398,-288 465,-288 465,-288 471,-288 477,-294 477,-300 477,-300 477,-312 477,-312 477,-318 471,-324 465,-324"/>
<text text-anchor="middle" x="431.5" y="-303.5" font-family="sans" font-size="10.00">polish_medaka</text>
</g>
<!-- 11&#45;&gt;0 -->
<g id="edge6" class="edge">
<title>11&#45;&gt;0</title>
<path fill="none" stroke="grey" stroke-width="2" d="M427.1,-287.74C417.22,-249.09 392.53,-152.64 371.5,-72 369.3,-63.58 366.89,-54.42 364.7,-46.12"/>
<polygon fill="grey" stroke="grey" stroke-width="2" points="368.01,-44.95 362.07,-36.18 361.24,-46.74 368.01,-44.95"/>
</g>
<!-- 12&#45;&gt;11 -->
<g id="edge19" class="edge">
<title>12&#45;&gt;11</title>
<path fill="none" stroke="grey" stroke-width="2" d="M472.15,-359.7C465.74,-351.39 457.94,-341.28 450.89,-332.14"/>
<polygon fill="grey" stroke="grey" stroke-width="2" points="453.57,-329.88 444.69,-324.1 448.03,-334.16 453.57,-329.88"/>
</g>
<!-- 16 -->
<g id="node17" class="node">
<title>16</title>
<path fill="none" stroke="#b6d856" stroke-width="2" stroke-dasharray="5,2" d="M543.5,-324C543.5,-324 507.5,-324 507.5,-324 501.5,-324 495.5,-318 495.5,-312 495.5,-312 495.5,-300 495.5,-300 495.5,-294 501.5,-288 507.5,-288 507.5,-288 543.5,-288 543.5,-288 549.5,-288 555.5,-294 555.5,-300 555.5,-300 555.5,-312 555.5,-312 555.5,-318 549.5,-324 543.5,-324"/>
<text text-anchor="middle" x="525.5" y="-303.5" font-family="sans" font-size="10.00">minimap</text>
</g>
<!-- 12&#45;&gt;16 -->
<g id="edge24" class="edge">
<title>12&#45;&gt;16</title>
<path fill="none" stroke="grey" stroke-width="2" d="M495.39,-359.7C499.99,-351.64 505.56,-341.89 510.65,-332.98"/>
<polygon fill="grey" stroke="grey" stroke-width="2" points="513.8,-334.52 515.73,-324.1 507.73,-331.05 513.8,-334.52"/>
</g>
<!-- 13 -->
<g id="node14" class="node">
<title>13</title>
<path fill="none" stroke="#56d89a" stroke-width="2" d="M513.5,-108C513.5,-108 473.5,-108 473.5,-108 467.5,-108 461.5,-102 461.5,-96 461.5,-96 461.5,-84 461.5,-84 461.5,-78 467.5,-72 473.5,-72 473.5,-72 513.5,-72 513.5,-72 519.5,-72 525.5,-78 525.5,-84 525.5,-84 525.5,-96 525.5,-96 525.5,-102 519.5,-108 513.5,-108"/>
<text text-anchor="middle" x="493.5" y="-87.5" font-family="sans" font-size="10.00">clairPolca</text>
</g>
<!-- 13&#45;&gt;0 -->
<g id="edge7" class="edge">
<title>13&#45;&gt;0</title>
<path fill="none" stroke="grey" stroke-width="2" d="M461.27,-72.41C441.02,-61.99 414.84,-48.52 393.85,-37.71"/>
<polygon fill="grey" stroke="grey" stroke-width="2" points="395.4,-34.57 384.91,-33.11 392.2,-40.8 395.4,-34.57"/>
</g>
<!-- 14 -->
<g id="node15" class="node">
<title>14</title>
<path fill="none" stroke="#61d856" stroke-width="2" d="M484.5,-180C484.5,-180 454.5,-180 454.5,-180 448.5,-180 442.5,-174 442.5,-168 442.5,-168 442.5,-156 442.5,-156 442.5,-150 448.5,-144 454.5,-144 454.5,-144 484.5,-144 484.5,-144 490.5,-144 496.5,-150 496.5,-156 496.5,-156 496.5,-168 496.5,-168 496.5,-174 490.5,-180 484.5,-180"/>
<text text-anchor="middle" x="469.5" y="-159.5" font-family="sans" font-size="10.00">clair</text>
</g>
<!-- 14&#45;&gt;0 -->
<g id="edge8" class="edge">
<title>14&#45;&gt;0</title>
<path fill="none" stroke="grey" stroke-width="2" d="M459.31,-143.95C448.01,-125.54 428.82,-95.68 409.5,-72 401.56,-62.27 392.13,-52.26 383.49,-43.61"/>
<polygon fill="grey" stroke="grey" stroke-width="2" points="385.74,-40.91 376.16,-36.39 380.83,-45.9 385.74,-40.91"/>
</g>
<!-- 14&#45;&gt;13 -->
<g id="edge21" class="edge">
<title>14&#45;&gt;13</title>
<path fill="none" stroke="grey" stroke-width="2" d="M475.43,-143.7C478.11,-135.9 481.33,-126.51 484.3,-117.83"/>
<polygon fill="grey" stroke="grey" stroke-width="2" points="487.7,-118.7 487.64,-108.1 481.08,-116.43 487.7,-118.7"/>
</g>
<!-- 15 -->
<g id="node16" class="node">
<title>15</title>
<path fill="none" stroke="#d87556" stroke-width="2" stroke-dasharray="5,2" d="M505.5,-252C505.5,-252 471.5,-252 471.5,-252 465.5,-252 459.5,-246 459.5,-240 459.5,-240 459.5,-228 459.5,-228 459.5,-222 465.5,-216 471.5,-216 471.5,-216 505.5,-216 505.5,-216 511.5,-216 517.5,-222 517.5,-228 517.5,-228 517.5,-240 517.5,-240 517.5,-246 511.5,-252 505.5,-252"/>
<text text-anchor="middle" x="488.5" y="-231.5" font-family="sans" font-size="10.00">sortBam</text>
</g>
<!-- 15&#45;&gt;14 -->
<g id="edge22" class="edge">
<title>15&#45;&gt;14</title>
<path fill="none" stroke="grey" stroke-width="2" d="M483.8,-215.7C481.69,-207.9 479.14,-198.51 476.78,-189.83"/>
<polygon fill="grey" stroke="grey" stroke-width="2" points="480.14,-188.84 474.14,-180.1 473.38,-190.67 480.14,-188.84"/>
</g>
<!-- 16&#45;&gt;15 -->
<g id="edge23" class="edge">
<title>16&#45;&gt;15</title>
<path fill="none" stroke="grey" stroke-width="2" d="M516.35,-287.7C512.1,-279.64 506.94,-269.89 502.23,-260.98"/>
<polygon fill="grey" stroke="grey" stroke-width="2" points="505.31,-259.31 497.54,-252.1 499.12,-262.58 505.31,-259.31"/>
</g>
<!-- 17 -->
<g id="node18" class="node">
<title>17</title>
<path fill="none" stroke="#d85656" stroke-width="2" d="M686.5,-108C686.5,-108 624.5,-108 624.5,-108 618.5,-108 612.5,-102 612.5,-96 612.5,-96 612.5,-84 612.5,-84 612.5,-78 618.5,-72 624.5,-72 624.5,-72 686.5,-72 686.5,-72 692.5,-72 698.5,-78 698.5,-84 698.5,-84 698.5,-96 698.5,-96 698.5,-102 692.5,-108 686.5,-108"/>
<text text-anchor="middle" x="655.5" y="-87.5" font-family="sans" font-size="10.00">polish_spades</text>
</g>
<!-- 17&#45;&gt;0 -->
<g id="edge9" class="edge">
<title>17&#45;&gt;0</title>
<path fill="none" stroke="grey" stroke-width="2" d="M612.49,-78.9C553.89,-65.13 449.94,-40.71 394.59,-27.71"/>
<polygon fill="grey" stroke="grey" stroke-width="2" points="395.06,-24.23 384.52,-25.35 393.45,-31.04 395.06,-24.23"/>
</g>
<!-- 18 -->
<g id="node19" class="node">
<title>18</title>
<path fill="none" stroke="#5673d8" stroke-width="2" stroke-dasharray="5,2" d="M924,-180C924,-180 527,-180 527,-180 521,-180 515,-174 515,-168 515,-168 515,-156 515,-156 515,-150 521,-144 527,-144 527,-144 924,-144 924,-144 930,-144 936,-150 936,-156 936,-156 936,-168 936,-168 936,-174 930,-180 924,-180"/>
<text text-anchor="middle" x="725.5" y="-165" font-family="sans" font-size="10.00">spades</text>
<text text-anchor="middle" x="725.5" y="-154" font-family="sans" font-size="10.00">results: /home/ubuntu/data/belson/isangi_nanopore/qc/results/polishing/2021.05.04</text>
</g>
<!-- 18&#45;&gt;17 -->
<g id="edge25" class="edge">
<title>18&#45;&gt;17</title>
<path fill="none" stroke="grey" stroke-width="2" d="M708.2,-143.7C699.64,-135.14 689.16,-124.66 679.8,-115.3"/>
<polygon fill="grey" stroke="grey" stroke-width="2" points="682.15,-112.7 672.6,-108.1 677.2,-117.65 682.15,-112.7"/>
</g>
</g>
</svg>
